<svg width="170" height="32" viewBox="0 0 170 32" fill="none" xmlns="http://www.w3.org/2000/svg">
<path d="M21.818 25.4268V31.0298C21.818 31.287 21.7158 31.5337 21.534 31.7155C21.3521 31.8974 21.1055 31.9995 20.8483 31.9995H11.1513C10.8942 31.9995 10.6475 31.8974 10.4657 31.7155C10.2838 31.5337 10.1816 31.287 10.1816 31.0298V25.4268C10.1816 25.2926 10.2095 25.1599 10.2634 25.037C10.3173 24.9141 10.3962 24.8037 10.495 24.7129L15.3435 20.1384L15.3501 20.1317C15.5286 19.9694 15.7613 19.8794 16.0025 19.8794C16.2438 19.8794 16.4765 19.9694 16.655 20.1317C16.657 20.1341 16.6593 20.1363 16.6616 20.1384L21.5101 24.7129C21.6079 24.8042 21.6858 24.9148 21.7387 25.0377C21.7917 25.1605 21.8187 25.293 21.818 25.4268Z" fill="white"/>
<path d="M21.818 6.57269V0.96968C21.818 0.712501 21.7158 0.465856 21.534 0.284003C21.3521 0.102151 21.1055 -1.33514e-05 20.8483 -1.33514e-05H11.1513C10.8942 -1.33514e-05 10.6475 0.102151 10.4657 0.284003C10.2838 0.465856 10.1816 0.712501 10.1816 0.96968V6.57269C10.1816 6.70689 10.2095 6.83964 10.2634 6.96253C10.3173 7.08542 10.3962 7.19578 10.495 7.28662L15.3435 11.8611L15.3501 11.8678C15.5286 12.0302 15.7613 12.1201 16.0025 12.1201C16.2438 12.1201 16.4765 12.0302 16.655 11.8678C16.657 11.8654 16.6593 11.8632 16.6616 11.8611L21.5101 7.28662C21.6079 7.1953 21.6858 7.08473 21.7387 6.96186C21.7917 6.83899 21.8187 6.70649 21.818 6.57269Z" fill="white"/>
<path d="M25.4264 10.182L31.0294 10.182C31.2866 10.182 31.5332 10.2842 31.7151 10.4661C31.8969 10.6479 31.9991 10.8946 31.9991 11.1517L31.9991 20.8487C31.9991 21.1058 31.8969 21.3525 31.7151 21.5343C31.5332 21.7162 31.2866 21.8184 31.0294 21.8184L25.4264 21.8184C25.2921 21.8184 25.1594 21.7905 25.0365 21.7366C24.9136 21.6827 24.8033 21.6038 24.7124 21.505L20.1379 16.6566L20.1312 16.6499C19.9689 16.4714 19.8789 16.2388 19.8789 15.9975C19.8789 15.7562 19.9689 15.5236 20.1312 15.3451C20.1336 15.343 20.1358 15.3408 20.1379 15.3384L24.7124 10.4899C24.8037 10.3921 24.9143 10.3143 25.0372 10.2613C25.16 10.2083 25.2926 10.1813 25.4264 10.182Z" fill="white"/>
<path d="M6.57365 10.182L0.970623 10.182C0.713443 10.182 0.466797 10.2842 0.284944 10.4661C0.103091 10.6479 0.000926495 10.8946 0.000926484 11.1517L0.00092606 20.8487C0.000926049 21.1058 0.10309 21.3525 0.284944 21.5343C0.466797 21.7162 0.713443 21.8184 0.970622 21.8184L6.57365 21.8184C6.70785 21.8184 6.8406 21.7905 6.96349 21.7366C7.08638 21.6827 7.19674 21.6038 7.28758 21.505L11.8621 16.6566L11.8688 16.6499C12.0311 16.4714 12.1211 16.2388 12.1211 15.9975C12.1211 15.7562 12.0311 15.5236 11.8688 15.3451C11.8664 15.343 11.8642 15.3408 11.8621 15.3384L7.28758 10.4899C7.19626 10.3921 7.08569 10.3143 6.96282 10.2613C6.83995 10.2083 6.70745 10.1813 6.57365 10.182Z" fill="white"/>
<path d="M48.0594 25H45.9387V6.56856H49.3946L54.9973 22.1201L60.3644 6.56856H63.768V25H61.595V9.29138L56.0446 25H53.7406L48.0594 9.47465V25ZM78.7576 23.403C78.9671 23.403 79.2551 23.403 79.4645 23.3506L79.3598 24.9738C79.098 25.1047 78.7315 25.1833 78.2602 25.1833C77.0297 25.1833 76.061 24.6073 75.7206 23.4553C74.8305 24.712 73.1811 25.2618 71.5317 25.2618C68.7565 25.2618 66.9762 23.7433 66.9762 21.1776C66.9762 18.7427 68.7827 17.1719 71.8197 17.1719H75.6683V16.3341C75.6683 14.3967 74.2545 13.4803 72.5004 13.4803C70.4321 13.4803 69.5419 14.292 68.835 15.8105L66.9238 14.9988C67.7616 12.9567 69.5157 11.6477 72.4218 11.6477C75.2494 11.6477 77.7628 12.852 77.7628 15.9152V22.4604C77.7628 23.0888 78.1031 23.403 78.7576 23.403ZM72.0029 23.4291C73.6523 23.4291 75.6683 22.6699 75.6683 20.3398V18.8736H72.16C70.0132 18.8736 69.123 19.7376 69.123 21.0728C69.123 22.3819 69.9346 23.4291 72.0029 23.4291ZM82.6433 6.35911C83.5858 6.35911 84.2141 6.98745 84.2141 7.92997C84.2141 8.87249 83.5858 9.50083 82.6433 9.50083C81.7007 9.50083 81.0724 8.87249 81.0724 7.92997C81.0724 6.98745 81.7007 6.35911 82.6433 6.35911ZM81.596 11.9095H83.6905V25H81.596V11.9095ZM107.42 13.8207V6.56856H111.661V25H107.42V17.5908H99.7229V25H95.4816V6.56856H99.7229V13.8207H107.42ZM121.235 11.6477C125.293 11.6477 128.068 14.1611 128.068 18.4547C128.068 22.7484 125.293 25.2618 121.235 25.2618C117.151 25.2618 114.376 22.7484 114.376 18.4547C114.376 14.1611 117.151 11.6477 121.235 11.6477ZM121.235 14.9988C119.56 14.9988 118.591 16.0723 118.591 18.4547C118.591 20.8372 119.56 21.9106 121.235 21.9106C122.885 21.9106 123.853 20.8372 123.853 18.4547C123.853 16.0723 122.885 14.9988 121.235 14.9988ZM134.843 25H130.654V11.9095H134.424L134.529 14.1349C135.472 12.4331 136.964 11.6477 138.928 11.6477C140.813 11.6477 142.383 12.5378 143.064 14.1872C143.928 12.4593 145.63 11.6477 147.515 11.6477C150.081 11.6477 152.044 13.2185 152.044 16.2294V25H147.855V17.3813C147.855 15.8366 147.07 15.2868 145.944 15.2868C144.53 15.2868 143.431 16.2032 143.431 18.062V25H139.242V17.3813C139.242 15.8366 138.482 15.2868 137.331 15.2868C136.074 15.2868 134.843 16.0985 134.843 18.0882V25ZM167.711 17.8526C167.711 18.5071 167.685 19.0831 167.633 19.5543H158.653C158.862 21.099 159.857 21.9892 161.532 21.9892C162.999 21.9892 163.653 21.2038 164.072 20.3136L167.554 21.7012C166.742 24.0051 164.203 25.2618 161.375 25.2618C157.213 25.2618 154.542 22.7746 154.542 18.5595C154.542 14.1611 157.291 11.6477 161.297 11.6477C165.381 11.6477 167.711 14.3967 167.711 17.8526ZM158.679 17.1195H163.627C163.575 15.6796 162.711 14.8418 161.271 14.8418C159.883 14.8418 158.888 15.5225 158.679 17.1195Z" fill="white"/>
</svg>
