<svg width="21" height="21" viewBox="0 0 21 21" fill="none" xmlns="http://www.w3.org/2000/svg">
<path d="M16.1253 5.32227V13.4473C16.1253 13.613 16.0595 13.772 15.9423 13.8892C15.8251 14.0064 15.6661 14.0723 15.5003 14.0723C15.3346 14.0723 15.1756 14.0064 15.0584 13.8892C14.9412 13.772 14.8753 13.613 14.8753 13.4473V6.83086L5.94254 15.7645C5.82526 15.8817 5.6662 15.9476 5.50035 15.9476C5.3345 15.9476 5.17544 15.8817 5.05816 15.7645C4.94088 15.6472 4.875 15.4881 4.875 15.3223C4.875 15.1564 4.94088 14.9974 5.05816 14.8801L13.9918 5.94727H7.37535C7.20959 5.94727 7.05062 5.88142 6.93341 5.76421C6.8162 5.647 6.75035 5.48803 6.75035 5.32227C6.75035 5.15651 6.8162 4.99753 6.93341 4.88032C7.05062 4.76311 7.20959 4.69727 7.37535 4.69727H15.5003C15.6661 4.69727 15.8251 4.76311 15.9423 4.88032C16.0595 4.99753 16.1253 5.15651 16.1253 5.32227Z" fill="white"/>
</svg>
