<svg width="44" height="44" viewBox="0 0 44 44" fill="none" xmlns="http://www.w3.org/2000/svg">
<path fill-rule="evenodd" clip-rule="evenodd" d="M22.3204 31.0103C27.0992 31.0103 30.9732 27.1363 30.9732 22.3575C30.9732 17.5787 27.0992 13.7047 22.3204 13.7047C17.5416 13.7047 13.6676 17.5787 13.6676 22.3575C13.6676 27.1363 17.5416 31.0103 22.3204 31.0103ZM22.3204 37.6271C30.7536 37.6271 37.59 30.7907 37.59 22.3575C37.59 13.9243 30.7536 7.08789 22.3204 7.08789C13.8872 7.08789 7.05078 13.9243 7.05078 22.3575C7.05078 30.7907 13.8872 37.6271 22.3204 37.6271Z" fill="#111111"/>
<path d="M22.4957 22.6918C24.0859 21.1016 26.6641 21.1016 28.2543 22.6918L36.1722 30.6098C37.7624 32.1999 37.7624 34.7781 36.1723 36.3683C34.5821 37.9585 32.0039 37.9585 30.4137 36.3683L22.4957 28.4503C20.9056 26.8601 20.9056 24.2819 22.4957 22.6918Z" fill="#111111"/>
<path d="M24.7188 30.6733L29.7475 35.7021C32.1596 34.3569 34.1691 32.3767 35.5501 29.9876L30.5625 25C29.6864 27.7342 27.4875 29.8764 24.7188 30.6733Z" fill="#111111"/>
</svg>
