<svg width="18" height="19" viewBox="0 0 18 19" fill="none" xmlns="http://www.w3.org/2000/svg">
<path d="M12.0077 14.8487V17.9192C12.0077 18.0601 11.9517 18.1953 11.8521 18.2949C11.7524 18.3946 11.6173 18.4506 11.4763 18.4506H6.16227C6.02133 18.4506 5.88616 18.3946 5.7865 18.2949C5.68685 18.1953 5.63086 18.0601 5.63086 17.9192V14.8487C5.63085 14.7751 5.6461 14.7024 5.67566 14.635C5.70522 14.5677 5.74843 14.5072 5.80257 14.4574L8.4596 11.9505L8.46325 11.9469C8.56108 11.8579 8.68856 11.8086 8.82079 11.8086C8.95302 11.8086 9.0805 11.8579 9.17833 11.9469C9.17946 11.9482 9.18068 11.9494 9.18198 11.9505L11.839 14.4574C11.8926 14.5075 11.9353 14.5681 11.9643 14.6354C11.9933 14.7027 12.0081 14.7753 12.0077 14.8487Z" fill="black"/>
<path d="M12.0068 4.51462V1.4441C12.0068 1.30316 11.9508 1.168 11.8511 1.06834C11.7515 0.968682 11.6163 0.912695 11.4753 0.912695H6.16129C6.02035 0.912695 5.88519 0.968682 5.78553 1.06834C5.68587 1.168 5.62988 1.30316 5.62988 1.4441V4.51462C5.62987 4.58817 5.64513 4.66092 5.67468 4.72826C5.70424 4.79561 5.74746 4.85609 5.80159 4.90587L8.45862 7.41277L8.46228 7.41642C8.5601 7.50539 8.68758 7.55469 8.81981 7.55469C8.95204 7.55469 9.07952 7.50539 9.17735 7.41642C9.17848 7.41512 9.1797 7.4139 9.181 7.41277L11.838 4.90587C11.8916 4.85582 11.9343 4.79523 11.9633 4.72789C11.9924 4.66056 12.0071 4.58795 12.0068 4.51462Z" fill="black"/>
<path d="M13.9834 6.49424L17.054 6.49424C17.1949 6.49424 17.3301 6.55023 17.4297 6.64988C17.5294 6.74954 17.5854 6.88471 17.5854 7.02564L17.5854 12.3397C17.5854 12.4806 17.5294 12.6158 17.4297 12.7154C17.3301 12.8151 17.1949 12.8711 17.054 12.8711L13.9834 12.8711C13.9099 12.8711 13.8371 12.8558 13.7698 12.8263C13.7024 12.7967 13.642 12.7535 13.5922 12.6994L11.0853 10.0424L11.0816 10.0387C10.9927 9.94088 10.9434 9.8134 10.9434 9.68117C10.9434 9.54894 10.9927 9.42146 11.0816 9.32364C11.0829 9.3225 11.0841 9.32128 11.0853 9.31998L13.5922 6.66296C13.6422 6.60937 13.7028 6.56671 13.7702 6.53767C13.8375 6.50863 13.9101 6.49385 13.9834 6.49424Z" fill="black"/>
<path d="M3.65231 6.49424L0.581776 6.49424C0.440839 6.49424 0.305674 6.55023 0.206016 6.64988C0.106358 6.74954 0.0503705 6.88471 0.0503705 7.02564L0.0503702 12.3397C0.0503702 12.4806 0.106358 12.6158 0.206016 12.7154C0.305674 12.8151 0.440839 12.8711 0.581776 12.8711L3.65231 12.8711C3.72585 12.8711 3.7986 12.8558 3.86595 12.8263C3.9333 12.7967 3.99377 12.7535 4.04356 12.6994L6.55046 10.0424L6.55412 10.0387C6.64308 9.94088 6.69238 9.8134 6.69238 9.68117C6.69238 9.54894 6.64308 9.42146 6.55412 9.32364C6.55282 9.3225 6.5516 9.32128 6.55046 9.31998L4.04356 6.66296C3.99351 6.60937 3.93292 6.56671 3.86558 6.53767C3.79825 6.50863 3.72563 6.49385 3.65231 6.49424Z" fill="black"/>
</svg>
