<svg width="411" height="387" viewBox="0 0 411 387" fill="none" xmlns="http://www.w3.org/2000/svg">
<path fill-rule="evenodd" clip-rule="evenodd" d="M240.529 321.578C230.161 324.564 219.205 326.163 207.875 326.163C142.818 326.163 90.0792 273.424 90.0792 208.367C90.0792 143.31 142.818 90.5714 207.875 90.5714C272.932 90.5714 325.671 143.31 325.671 208.367C325.671 220.912 323.71 232.999 320.078 244.338L288.658 212.918C267.01 191.27 231.912 191.27 210.264 212.918C188.616 234.566 188.616 269.665 210.264 291.313L240.529 321.578ZM308.988 390.037C279.059 406.73 244.578 416.242 207.875 416.242C93.0689 416.242 0 323.174 0 208.367C0 93.5611 93.0689 0.492188 207.875 0.492188C322.681 0.492188 415.75 93.5611 415.75 208.367C415.75 246.203 405.642 281.677 387.979 312.238L387.981 312.24L387.981 312.241L396.451 320.711C418.099 342.359 418.099 377.457 396.451 399.105C374.803 420.753 339.704 420.753 318.056 399.105L308.988 390.037Z" fill="white"/>
</svg>
