<svg width="33" height="32" viewBox="0 0 33 32" fill="none" xmlns="http://www.w3.org/2000/svg">
<path d="M22.086 2.66699H10.9127C6.05935 2.66699 3.16602 5.56033 3.16602 10.4137V21.5737C3.16602 26.4403 6.05935 29.3337 10.9127 29.3337H22.0727C26.926 29.3337 29.8193 26.4403 29.8193 21.587V10.4137C29.8327 5.56033 26.9394 2.66699 22.086 2.66699ZM12.646 22.5337C12.646 22.907 12.3527 23.2003 11.9793 23.2003H8.25935C7.88602 23.2003 7.59268 22.907 7.59268 22.5337V16.3737C7.59268 15.5337 8.27268 14.8537 9.11268 14.8537H11.9793C12.3527 14.8537 12.646 15.147 12.646 15.5203V22.5337ZM19.0193 22.5337C19.0193 22.907 18.726 23.2003 18.3527 23.2003H14.6327C14.2593 23.2003 13.966 22.907 13.966 22.5337V10.3203C13.966 9.48033 14.646 8.80033 15.486 8.80033H17.5127C18.3527 8.80033 19.0327 9.48033 19.0327 10.3203V22.5337H19.0193ZM25.406 22.5337C25.406 22.907 25.1127 23.2003 24.7394 23.2003H21.0193C20.646 23.2003 20.3527 22.907 20.3527 22.5337V17.8003C20.3527 17.427 20.646 17.1337 21.0193 17.1337H23.886C24.726 17.1337 25.406 17.8137 25.406 18.6537V22.5337Z" fill="white"/>
</svg>
