<svg width="33" height="31" viewBox="0 0 33 31" fill="none" xmlns="http://www.w3.org/2000/svg">
<path d="M27.553 8.72921L19.873 3.57081C17.7797 2.16281 14.5663 2.23961 12.553 3.73721L5.87299 8.74201C4.53966 9.74041 3.48633 11.7884 3.48633 13.4012V22.2332C3.48633 25.4972 6.24633 28.1596 9.64633 28.1596H24.0197C27.4197 28.1596 30.1797 25.51 30.1797 22.246V13.5676C30.1797 11.8396 29.0197 9.71481 27.553 8.72921ZM17.833 23.0396C17.833 23.5644 17.3797 23.9996 16.833 23.9996C16.2863 23.9996 15.833 23.5644 15.833 23.0396V19.1996C15.833 18.6748 16.2863 18.2396 16.833 18.2396C17.3797 18.2396 17.833 18.6748 17.833 19.1996V23.0396Z" fill="white"/>
</svg>
