<svg width="33" height="32" viewBox="0 0 33 32" fill="none" xmlns="http://www.w3.org/2000/svg">
<path d="M16.1647 2.66699C9.17805 2.66699 3.49805 8.34699 3.49805 15.3337C3.49805 22.3203 9.17805 28.0003 16.1647 28.0003C23.1514 28.0003 28.8314 22.3203 28.8314 15.3337C28.8314 8.34699 23.1514 2.66699 16.1647 2.66699ZM16.1647 18.3337H12.1647C11.618 18.3337 11.1647 17.8803 11.1647 17.3337C11.1647 16.787 11.618 16.3337 12.1647 16.3337H16.1647C16.7114 16.3337 17.1647 16.787 17.1647 17.3337C17.1647 17.8803 16.7114 18.3337 16.1647 18.3337ZM20.1647 14.3337H12.1647C11.618 14.3337 11.1647 13.8803 11.1647 13.3337C11.1647 12.787 11.618 12.3337 12.1647 12.3337H20.1647C20.7114 12.3337 21.1647 12.787 21.1647 13.3337C21.1647 13.8803 20.7114 14.3337 20.1647 14.3337Z" fill="white"/>
<path d="M29.2334 29.3318C28.9934 29.3318 28.7534 29.2384 28.5801 29.0651L26.1001 26.5851C25.7401 26.2251 25.7401 25.6385 26.1001 25.2651C26.4601 24.9051 27.0467 24.9051 27.4201 25.2651L29.9001 27.7451C30.2601 28.1051 30.2601 28.6918 29.9001 29.0651C29.7134 29.2384 29.4734 29.3318 29.2334 29.3318Z" fill="white"/>
</svg>
